<?xml version="1.0" standalone="no"?><!DOCTYPE svg PUBLIC "-//W3C//DTD SVG 1.1//EN"
        "http://www.w3.org/Graphics/SVG/1.1/DTD/svg11.dtd">
<svg t="1719218424597" class="icon" viewBox="0 0 1024 1024" version="1.1" xmlns="http://www.w3.org/2000/svg" p-id="6945"
     xmlns:xlink="http://www.w3.org/1999/xlink" width="200" height="200">
    <path d="M384 96H128a32 32 0 0 0-32 32v256c0 17.664 14.336 32 32 32h256A32 32 0 0 0 416 384V128A32 32 0 0 0 384 96zM896 608h-256a32 32 0 0 0-32 32v256c0 17.664 14.336 32 32 32h256a32 32 0 0 0 32-32v-256a32 32 0 0 0-32-32z m-32 64v192h-192v-192h192z"
          p-id="6946"></path>
    <path d="M224 419.968v42.666667h64v-42.666667h-64z m0 85.333333v42.666667h64v-42.666667h-64z m0 85.333334v42.666666h64v-42.666666h-64z m0 85.333333v42.666667h64v-42.666667h-64z m0 60.032V768c0 17.664 14.336 32 32 32h35.968v-64H256V768h32v-32h-64z m110.634667 64h42.666666v-64h-42.666666v64z m85.333333 0h42.666667v-64h-42.666667v64z m85.333333 0h42.666667v-64h-42.666667v64z m85.333334 0h42.666666v-64h-42.666666v64z"
          p-id="6947"></path>
</svg>
